<svg xmlns="http://www.w3.org/2000/svg" viewBox="0 0 44.8 44.8"><defs><style>.cls-1{fill:#4b4b4b;}</style></defs><g id="レイヤー_2" data-name="レイヤー 2"><g id="tb"><path class="cls-1" d="M22.4,0a22.4,22.4,0,0,0,0,44.8h.06a8.3,8.3,0,0,0,5.68-2,6.09,6.09,0,0,0,1.59-7,7.35,7.35,0,0,0,1-.65c.37-.26,1.4-1.64.68-2.78a23.75,23.75,0,0,0-4-4.17,2,2,0,0,0-2.46.82c-.57.84-1,.59-1,.59S22.25,28.34,20,23.82s-2.3-6.61-2.3-6.61.07-.51,1.08-.46a2,2,0,0,0,2.15-1.45,23.55,23.55,0,0,0-.88-5.74c-.46-1.27-2.19-1.29-2.62-1.15s-4.81,1.2-5.16,5.79a23.49,23.49,0,0,0,2.53,12.19A23.51,23.51,0,0,0,23,35.79a5.94,5.94,0,0,0,4.33.93,3.61,3.61,0,0,1-.91,4.2,5.72,5.72,0,0,1-3.95,1.31H22.4A19.82,19.82,0,1,1,39.89,31.75,19.66,19.66,0,0,1,36.81,36a1.29,1.29,0,0,0,1.88,1.76A22.72,22.72,0,0,0,42.16,33,22.41,22.41,0,0,0,22.4,0Z"/></g></g></svg>