<?xml version="1.0" encoding="utf-8"?>
<!-- Generator: Adobe Illustrator 16.0.0, SVG Export Plug-In . SVG Version: 6.00 Build 0)  -->
<!DOCTYPE svg PUBLIC "-//W3C//DTD SVG 1.1//EN" "http://www.w3.org/Graphics/SVG/1.1/DTD/svg11.dtd">
<svg version="1.1" id="レイヤー_1" xmlns="http://www.w3.org/2000/svg" xmlns:xlink="http://www.w3.org/1999/xlink" x="0px"
	 y="0px" width="228.958px" height="81.244px" viewBox="0 0 228.958 81.244" enable-background="new 0 0 228.958 81.244"
	 xml:space="preserve">
<g>
	<g>
		<path fill="#A98456" d="M1.3,41.141C0.492,36.009,1.138,30.076,3.027,25.3c0.313-0.787,0.562-1.455,0.562-1.499
			c0-0.114,1.451-2.63,2.176-3.773c0.79-1.244,2.294-3.172,3.282-4.206c0.388-0.406,0.723-0.786,0.745-0.851
			c0.063-0.184,3.708-3.214,4.482-3.726c0.381-0.252,0.836-0.569,1.022-0.713c0.19-0.148,0.395-0.261,0.471-0.261
			c0.077,0,0.173-0.063,0.23-0.152c0.189-0.295,3.574-2.027,4.934-2.524c0.354-0.13,1.029-0.378,1.525-0.563
			c0.489-0.182,1.531-0.468,2.317-0.635c0.789-0.167,1.475-0.333,1.531-0.37c0.055-0.032,0.705-0.125,1.429-0.202
			c0.725-0.076,1.529-0.165,1.772-0.191c1-0.118,5.602-0.077,6.656,0.061c2.376,0.305,5.698,0.99,6.491,1.336
			c0.209,0.091,0.7,0.268,1.079,0.389c0.382,0.123,0.959,0.339,1.272,0.479c0.787,0.354,1.449,0.594,1.499,0.542
			c0.062-0.06-1.728-1.157-2.326-1.423c-0.28-0.124-0.85-0.383-1.269-0.573c-1.524-0.693-3.188-1.291-3.621-1.304
			c-0.241-0.007-0.475-0.055-0.512-0.103c-0.119-0.158-2.029-0.606-3.628-0.852c-0.879-0.135-2.269-0.235-3.397-0.249
			c-1.056-0.01-2.087-0.042-2.301-0.068c-0.214-0.029-0.87-0.001-1.468,0.058C25.68,4.163,23.4,4.561,22.201,4.937
			c-2.796,0.877-5.354,1.92-6.67,2.716c-0.175,0.108-0.826,0.487-1.448,0.843c-1.491,0.856-3.936,2.806-5.414,4.317
			c-1.441,1.475-3.548,4.014-3.552,4.283C5.114,17.152,5,17.336,4.858,17.514c-0.86,1.067-2.304,3.862-3.021,5.843
			c-0.554,1.537-0.954,2.932-0.865,3.015c0.042,0.039,0.022,0.135-0.042,0.212c-0.121,0.144-0.448,1.677-0.666,3.125
			c-0.614,4.077-0.131,9.716,1.131,13.211c0.256,0.713,0.452,0.959,0.291,0.369C1.624,43.052,1.448,42.082,1.3,41.141z"/>
		<path fill="#A98456" d="M42.272,13.491c1.282,0.134,2.554,0.366,2.958,0.533c0.234,0.098,0.713,0.213,1.081,0.264
			c0.369,0.049,0.717,0.131,0.789,0.184c0.07,0.054,0.405,0.178,0.761,0.284c0.741,0.219,2.923,1.152,4.549,1.949
			c1.931,0.943,4.293,2.598,6.313,4.417c0.902,0.816,3.087,3.162,3.557,3.824c0.668,0.942,1.919,2.974,2.148,3.494
			c0.25,0.572,0.647,1.209,0.647,1.042c0-0.091-0.12-0.433-0.265-0.764c-0.696-1.575-1.333-2.912-1.522-3.2
			c-0.113-0.174-0.392-0.66-0.615-1.081c-0.222-0.417-0.518-0.932-0.653-1.143c-0.14-0.214-0.286-0.464-0.337-0.572
			c-0.136-0.292-1.064-1.626-1.9-2.731c-1.478-1.956-4.254-4.654-6.141-5.975c-1.155-0.806-2.519-1.709-2.579-1.709
			c-0.035,0-0.425-0.219-0.869-0.485c-0.445-0.266-1.006-0.563-1.25-0.661c-0.248-0.099-0.649-0.304-0.903-0.461
			c-1.714-1.061-4.826-2.022-8.625-2.667c-1.309-0.22-6.851-0.337-7.94-0.166c-0.418,0.063-0.904,0.12-1.08,0.12
			c-0.772,0.005-3.518,0.561-5.272,1.067c-1.002,0.29-2.75,0.956-3.212,1.227c-0.23,0.135-0.496,0.246-0.586,0.246
			c-0.218,0-3.062,1.488-3.48,1.821c-0.181,0.146-0.343,0.243-1.004,0.619c-1.052,0.599-3.82,2.895-4.992,4.14
			c-1.244,1.321-2.332,2.553-2.469,2.794c-0.064,0.116-0.2,0.294-0.288,0.382c-0.159,0.157-0.971,1.322-1.244,1.779
			c-0.073,0.121-0.241,0.382-0.388,0.598c-0.143,0.207-0.423,0.697-0.616,1.08c-0.194,0.381-0.428,0.784-0.516,0.888
			c-0.222,0.265-1.001,2.032-1.4,3.176c-0.182,0.521-0.38,1.069-0.438,1.208c-0.517,1.225-1.097,3.532-1.424,5.652
			c-0.3,1.944-0.411,5.302-0.22,6.669c0.068,0.489,0.186,1.348,0.26,1.906c0.346,2.58,1.473,6.309,2.653,8.777
			c1.777,3.724,3.919,6.69,6.789,9.411c1.69,1.602,4.929,4.104,5.31,4.104c0.048,0,0.369,0.191,0.699,0.42
			c0.932,0.637,4.637,2.442,5.754,2.802c0.318,0.104,0.764,0.269,1.002,0.372c0.662,0.292,1.801,0.622,1.882,0.545
			c0.035-0.03-0.204-0.175-0.521-0.312c-2.794-1.199-5.396-2.811-7.851-4.865c-1.424-1.189-3.427-3.228-4.104-4.171
			c-1.148-1.599-2.357-3.53-3.041-4.862c-0.752-1.461-1.608-3.472-1.608-3.773c0-0.077-0.096-0.354-0.209-0.61
			C9.536,50.357,9.02,47.71,8.75,45.399c-0.232-1.985-0.134-6.286,0.17-7.56c0.06-0.249,0.144-0.724,0.191-1.08
			c0.314-2.351,1.947-6.607,3.41-8.893c0.318-0.496,0.729-1.144,0.927-1.46c0.319-0.511,0.733-1.082,1.939-2.667
			c0.372-0.494,0.436-0.557,1.985-2.039c1.271-1.212,3.309-2.874,4.381-3.567c1.209-0.785,2.515-1.51,2.72-1.51
			c0.105,0,0.293-0.131,0.42-0.298c0.125-0.164,0.305-0.274,0.4-0.24c0.096,0.031,0.43-0.083,0.761-0.263
			c0.327-0.175,1.213-0.519,1.988-0.772c0.774-0.255,1.51-0.513,1.652-0.585c0.307-0.151,2.108-0.62,2.73-0.711
			c0.244-0.035,1.018-0.153,1.714-0.262c1.386-0.219,6.075-0.33,6.96-0.167C41.403,13.381,41.916,13.453,42.272,13.491z"/>
		<path fill="#A98456" d="M72.072,29.906c-0.583,0.49-0.695,0.754-0.498,1.2c0.106,0.241,0.261,0.38,0.422,0.38
			c0.319,0,1.01-0.686,1.202-1.194C73.473,29.57,72.764,29.326,72.072,29.906z"/>
		<path fill="#A98456" d="M70.307,33.981c-0.317-0.29-0.483-0.27-0.852,0.099c-0.345,0.344-0.401,0.774-0.169,1.271
			c0.195,0.416,0.45,0.411,0.894-0.011C70.599,34.939,70.659,34.304,70.307,33.981z"/>
		<path fill="#A98456" d="M61.211,35.793c-0.693,0.723-0.708,2.009-0.025,2.188c0.467,0.122,0.577,0.06,1.058-0.586
			c0.509-0.688,0.531-1.14,0.075-1.614C61.889,35.334,61.649,35.336,61.211,35.793z"/>
		<path fill="#A98456" d="M71.527,37.839c-0.163,0-0.477,0.125-0.704,0.286c-0.332,0.228-0.408,0.363-0.384,0.667
			c0.044,0.52,0.537,0.586,1.023,0.136C71.919,38.505,71.959,37.839,71.527,37.839z"/>
		<path fill="#A98456" d="M65.084,42.186c0.244,0.207,0.42,0.213,1.334,0.033c0.416-0.082,0.998-0.747,1.436-1.635
			c0.448-0.915,0.485-1.282,0.17-1.69c-0.307-0.396-0.881-0.47-1.426-0.189c-1.105,0.571-1.034,0.468-1.466,2.12l-0.3,1.146
			L65.084,42.186z"/>
		<path fill="#A98456" d="M66.54,50.951c-0.283-0.459-0.735-0.646-1.01-0.417c-0.282,0.234-1.283,0.51-1.574,0.431
			c-0.18-0.047-0.297-0.245-0.402-0.677c-0.178-0.735-0.067-1.009,0.567-1.401c0.239-0.148,0.445-0.34,0.445-0.415
			c0-0.441-3.494-3.33-5.095-4.208c-1.45-0.798-3.932-1.781-5.258-2.081c-2.123-0.485-5.095-0.638-7.368-0.379
			c-0.496,0.055-1.052,0.156-1.258,0.229c-0.201,0.066-0.559,0.125-0.789,0.125c-0.228,0-0.45,0.053-0.489,0.115
			c-0.038,0.06-0.286,0.154-0.539,0.2c-0.687,0.129-1.011,0.318-0.787,0.461c0.097,0.063,0.355,0.112,0.571,0.112
			c0.216,0,0.428,0.034,0.47,0.076c0.044,0.042,0.471,0.21,0.966,0.378c2.706,0.912,5.833,2.997,7.952,5.3
			c0.619,0.676,1.117,1.108,1.272,1.108c0.19,0,0.21,0.025,0.081,0.106c-0.131,0.083-0.026,0.323,0.459,1.047
			c2.231,3.318,3.196,6.352,3.261,10.252c0.048,2.923-0.522,5.618-1.762,8.334c-0.464,1.016-1.527,2.812-1.887,3.188
			c-0.132,0.141-0.376,0.459-0.531,0.699c-0.657,1.008-2.887,3.029-4.513,4.087c-0.864,0.561-2.607,1.45-3.074,1.568
			c-0.19,0.045-0.356,0.138-0.356,0.202c0,0.058-0.102,0.112-0.216,0.112c-0.279,0-2.071,0.67-2.071,0.775
			c0,0.104,1.156,0.461,2.021,0.622c0.368,0.069,0.72,0.155,0.774,0.188c0.253,0.159,3.735,0.208,5.082,0.075
			c1.651-0.163,2.334-0.3,3.647-0.729c0.494-0.164,0.986-0.297,1.092-0.297c0.234,0,2.172-0.876,2.756-1.243
			c0.24-0.155,0.497-0.281,0.558-0.281c0.207,0,2.757-1.793,3.381-2.374c0.546-0.508,1.448-1.411,1.783-1.781
			c1.175-1.294,2.663-3.572,2.663-4.076c0-0.152,0.08-0.28,0.177-0.28c0.354,0,1.359-2.833,1.758-4.954
			c0.214-1.142,0.272-1.92,0.266-3.556c-0.011-2.986-0.397-5.048-1.412-7.561C67.69,52.896,67.37,52.282,66.54,50.951z"/>
		<path fill="#A98456" d="M69.43,45.553c-0.137,0.053-0.179,0.011-0.147-0.153c0.063-0.331-0.271-0.355-0.678-0.051
			c-0.26,0.192-0.355,0.371-0.355,0.664c0,0.234-0.186,0.706-0.446,1.138c-0.989,1.638-0.186,2.409,1.322,1.265
			c0.8-0.604,0.949-0.922,0.869-1.835C69.922,45.765,69.739,45.431,69.43,45.553z"/>
		<path fill="#A98456" d="M53.258,53.777c0.337-0.177,0.382-0.263,0.382-0.745c0-0.764-0.52-1.138-1.016-0.732
			c-0.288,0.234-0.52,1.024-0.418,1.419C52.288,54.03,52.725,54.054,53.258,53.777z"/>
		<path fill="#A98456" d="M52.078,60.682c0.903,0.19,1.108,0.035,1.332-1.006c0.195-0.915,0.113-1.386-0.303-1.729
			c-0.146-0.124-0.239-0.074-0.521,0.28c-0.394,0.497-0.905,1.487-1.023,1.983C51.487,60.532,51.52,60.561,52.078,60.682z"/>
		<path fill="#A98456" d="M46.725,58.646c-0.184-0.026-0.271,0.064-0.332,0.344c-0.046,0.216-0.146,0.502-0.229,0.66
			c-0.201,0.383-0.183,1.015,0.034,1.097c0.381,0.146,1.441-0.334,1.662-0.752c0.072-0.138,0.231-0.396,0.361-0.584
			c0.25-0.369,0.186-0.632-0.246-1.006c-0.292-0.255-1.071-0.4-1.321-0.244c-0.163,0.099-0.152,0.147,0.063,0.322
			C46.958,58.676,46.959,58.684,46.725,58.646z"/>
		<path fill="#A98456" d="M43.741,59.104c-0.217,0.23-0.233,0.31-0.104,0.446c0.127,0.131,0.108,0.156-0.096,0.119
			c-0.179-0.029-0.313,0.076-0.457,0.368c-0.112,0.23-0.273,0.498-0.361,0.604c-0.223,0.269-0.071,0.571,0.285,0.571
			c0.348,0,0.548-0.201,1.025-1.041C44.574,59.219,44.362,58.443,43.741,59.104z"/>
		<path fill="#A98456" d="M38.702,68.263c-0.102-0.559-0.156-0.64-0.457-0.671c-0.255-0.03-0.384,0.035-0.496,0.252
			c-0.083,0.16-0.454,0.61-0.815,0.992c-0.755,0.798-0.95,1.27-0.95,2.298c0,1.447,0.886,1.5,2.216,0.128l0.628-0.647l-0.007-0.858
			C38.818,69.286,38.764,68.612,38.702,68.263z"/>
		<path fill="#A98456" d="M42.804,72.65c-0.083,0.006-0.425,0.135-0.755,0.286c-0.503,0.235-0.659,0.395-0.933,0.967
			c-0.465,0.975-0.396,1.059,0.799,0.956c1.067-0.091,1.252-0.207,1.373-0.866C43.371,73.547,43.043,72.642,42.804,72.65z"/>
		<path fill="#A98456" d="M31.461,75.255c-0.345-0.073-0.442-0.018-0.978,0.553c-0.478,0.51-0.598,0.729-0.598,1.093
			c0,0.636,0.229,0.668,1.042,0.152c0.825-0.527,0.967-0.686,1.065-1.191C32.076,75.427,32.032,75.378,31.461,75.255z"/>
	</g>
	<g>
		<g>
			<path fill="#231815" d="M171.063,55.996c-0.136-0.251-0.128-0.362,0.043-0.697c0.133-0.255,0.205-0.712,0.205-1.287
				c0-0.868-0.011-0.9-0.384-1.099c-0.355-0.19-0.382-0.258-0.382-0.932c0-0.397-0.035-0.851-0.076-0.995
				c-0.055-0.196,0.051-0.39,0.382-0.702c0.473-0.446,0.55-0.729,0.318-1.164c-0.136-0.249-0.146-0.249-0.396,0.019
				c-0.141,0.154-0.375,0.259-0.528,0.237c-0.237-0.031-0.288-0.154-0.365-0.866c-0.104-0.983-0.008-2.072,0.235-2.672
				c0.191-0.458,0.137-0.945-0.271-2.424c-0.224-0.804-0.211-0.791-0.729-0.896c-0.38-0.08-0.429-0.14-0.49-0.624
				c-0.044-0.319-0.172-0.612-0.32-0.722c-0.192-0.144-0.214-0.22-0.096-0.338c0.221-0.223,0.063-0.482-0.41-0.683
				c-0.291-0.124-0.43-0.278-0.485-0.55c-0.04-0.203-0.215-0.546-0.381-0.747c-0.17-0.204-0.35-0.513-0.401-0.69
				c-0.054-0.178-0.196-0.429-0.321-0.573c-0.122-0.141-0.49-0.638-0.81-1.098c-0.704-1.01-1.671-1.903-2.058-1.903
				c-0.41,0-0.627-0.217-1.243-1.238c-0.446-0.739-0.74-1.048-1.495-1.577c-0.51-0.358-1.031-0.739-1.146-0.837
				c-0.117-0.099-0.441-0.376-0.735-0.625c-0.292-0.249-0.588-0.446-0.67-0.446c-0.079,0-0.331-0.177-0.55-0.384
				c-0.217-0.208-0.469-0.383-0.548-0.383c-0.082,0-0.428-0.178-0.784-0.406c-0.882-0.559-1.996-1.126-2.212-1.126
				c-0.1,0-0.266-0.077-0.382-0.177c-0.309-0.263-1.353-0.561-2.553-0.723c-0.601-0.083-1.172-0.191-1.277-0.244
				c-0.259-0.133-1.826-0.484-2.566-0.578c-0.791-0.1-2.745-0.162-3.446-0.105c-0.068,0.005-0.143,0.013-0.214,0.018
				c-0.739-0.007-2.468-0.005-5.695,0.47c-1.805,0.267-3.579,0.709-5.295,1.331c-4.801,1.74-9.304,4.988-12.168,9.257
				c-1.1,1.635-2.143,3.421-2.974,5.21c-1.32,2.847-1.615,6.271-1.878,9.356c-0.197,2.334-0.158,4.687,0.19,7.007
				c0.692,4.593,2.692,11.604,7.592,13.468c1.263,0.478,2.694,0.639,4.038,0.584c0.043-0.002,1.68-0.193,1.592-0.336
				c-0.002-0.003-0.043-0.069-0.102-0.165c0.215-0.076,0.468-0.179,0.815-0.324c1.111-0.462,1.403-0.651,2.108-1.359l0.816-0.825
				l0.043-1.687c0.045-1.759-0.094-2.599-0.621-3.727c-0.133-0.28-0.275-0.739-0.32-1.02c-0.063-0.383-0.253-0.691-0.742-1.213
				c-0.358-0.384-0.831-0.923-1.041-1.188c-0.212-0.268-0.504-0.642-0.653-0.83c-0.728-0.933-1.336-2.167-1.401-2.849
				c-0.036-0.377-0.189-1.237-0.339-1.902c-0.149-0.663-0.268-1.586-0.257-2.041c0.033-1.84,0.133-3.216,0.236-3.321
				c0.167-0.164,1.967-0.422,5.158-0.735c0.597-0.059,2.236-0.12,3.64-0.137c2.195-0.029,2.617-0.067,3.015-0.268
				c0.638-0.33,1.834-0.472,1.985-0.237c0.058,0.091,0.111,1.8,0.114,3.803c0.005,2.722,0.048,3.716,0.168,3.934
				c0.38,0.688,0.564,0.039,0.898-3.166c0.077-0.738,0.254-1.74,0.396-2.235c0.143-0.5,0.255-1.158,0.255-1.494
				c0-0.561,0.036-0.63,0.587-1.079c0.492-0.402,0.722-0.495,1.423-0.581c0.563-0.068,1.002-0.211,1.342-0.434l0.503-0.333
				l0.39,0.29c0.367,0.268,0.417,0.273,0.786,0.091c0.918-0.455,4.597-0.613,7.75-0.337c1.852,0.164,2.567,0.084,2.643-0.299
				c0.058-0.315-0.445-0.533-1.442-0.62c-0.489-0.044-1.558-0.151-2.361-0.235c-1.621-0.173-9.236-0.251-9.974-0.102
				c-0.673,0.133-0.931-0.151-0.84-0.931c0.213-1.838,0.391-2.858,0.658-3.741c0.255-0.844,0.285-1.096,0.191-1.769
				c-0.063-0.434-0.196-0.87-0.299-0.978c-0.291-0.296-2.059-0.667-3.643-0.765c-1.265-0.079-1.505-0.063-1.725,0.115
				c-0.25,0.2-0.251,0.216-0.018,0.984c0.154,0.509,0.384,0.92,0.662,1.192c0.27,0.259,0.43,0.537,0.43,0.74
				c0,0.178,0.116,0.875,0.258,1.539c0.574,2.67,0.667,3.348,0.482,3.521c-0.109,0.102-0.971,0.204-2.464,0.295
				c-1.265,0.077-2.932,0.204-3.704,0.282c-0.775,0.078-2.374,0.12-3.573,0.096l-2.172-0.045l0.024-0.364
				c0.016-0.202,0.229-0.605,0.48-0.912c0.253-0.306,0.451-0.612,0.451-0.69c0-0.075,0.269-0.386,0.588-0.683
				c0.328-0.303,0.729-0.835,0.906-1.207c0.203-0.423,0.479-0.757,0.756-0.919c0.26-0.153,0.541-0.484,0.707-0.829
				c0.221-0.461,0.385-0.617,0.838-0.784c0.305-0.117,0.685-0.378,0.835-0.583c0.152-0.204,0.396-0.37,0.543-0.37
				c0.319,0,0.958-0.38,1.966-1.174c0.435-0.342,0.965-0.689,1.195-0.786c0.228-0.093,0.491-0.266,0.585-0.383
				c0.099-0.118,0.282-0.21,0.423-0.21c0.139,0,0.632-0.163,1.105-0.362c1.143-0.486,1.863-0.628,3.6-0.717
				c2.373-0.12,6.916,0.579,8.808,1.356c3.302,1.353,6.836,4.843,8.711,8.598c0.726,1.454,0.935,1.992,1.059,2.718
				c0.15,0.894,0.41,4.86,0.359,5.467c-0.118,1.354-0.312,2.57-0.543,3.371c-0.133,0.458-0.277,1.158-0.325,1.57
				c-0.236,2.048-3.041,5.803-5.875,7.865c-0.703,0.512-0.999,0.65-1.384,0.65c-0.433,0-0.573,0.082-1.151,0.683
				c-0.621,0.645-0.701,0.688-1.442,0.774c-0.511,0.058-0.892,0.182-1.091,0.355c-0.808,0.702-1.534,0.904-4.635,1.301
				c-1.521,0.193-1.97,0.356-1.609,0.582c0.152,0.098,0.12,0.15-0.158,0.256c-0.194,0.072-0.509,0.133-0.697,0.133
				s-0.804,0.153-1.366,0.339c-1.265,0.421-1.366,0.468-1.363,0.623c0.008,0.178,0.482,0.287,1.325,0.303
				c0.612,0.01,0.723,0.052,0.777,0.277c0.062,0.25,0.078,0.247,0.396-0.071c0.371-0.373,0.498-0.393,0.88-0.138
				c0.253,0.169,0.499,0.147,2.376-0.194c2.135-0.391,2.561-0.373,2.176,0.087c-0.255,0.304,0.034,0.423,0.685,0.281
				c0.295-0.063,0.882-0.16,1.304-0.214c0.687-0.092,2.105-0.503,3.42-0.993c0.269-0.098,0.688-0.325,0.907-0.493
				c0.384-0.289,0.844-0.413,0.844-0.227c0,0.041-0.218,0.264-0.474,0.485c-0.448,0.388-0.457,0.414-0.205,0.497
				c0.368,0.116,1.227-0.34,2.211-1.173c0.765-0.649,1.192-0.794,1.232-0.41c0.008,0.104,0.023,0.24,0.032,0.296
				c0.005,0.053,0.196-0.026,0.413-0.18c0.219-0.155,0.676-0.421,1.006-0.586c0.335-0.169,0.848-0.582,1.139-0.908
				c0.291-0.333,0.623-0.687,0.738-0.793c0.119-0.104,0.384-0.376,0.596-0.606c0.213-0.228,0.491-0.415,0.626-0.415
				c0.234,0,0.234,0.015,0.036,0.321c-0.266,0.406-0.257,0.446,0.104,0.446c0.205,0,0.334,0.096,0.39,0.286
				c0.079,0.273,0.093,0.27,0.3-0.153c0.12-0.241,0.382-0.527,0.583-0.637c0.204-0.112,0.431-0.391,0.519-0.648
				c0.213-0.609,0.861-1.6,1.248-1.904c0.235-0.182,0.304-0.346,0.261-0.613c-0.039-0.263,0.036-0.474,0.257-0.741
				c0.172-0.206,0.496-0.765,0.722-1.238c0.224-0.474,0.518-0.92,0.65-0.99c0.19-0.101,0.227-0.212,0.165-0.518
				c-0.058-0.293-0.006-0.466,0.217-0.701c0.156-0.167,0.396-0.313,0.513-0.313c0.328,0,0.472-0.229,0.834-1.355
				c0.179-0.547,0.419-1.11,0.531-1.23C171.191,56.33,171.198,56.252,171.063,55.996z"/>
		</g>
		<g>
			<path fill="#231815" d="M205.155,21.972c-0.014,5.912,0.027,10.307,0.108,11.043c0.073,0.677,0.129,1.713,0.121,2.312
				c-0.012,1.031,0.019,5.913,0.049,8.557c0.008,0.663,0.084,1.729,0.171,2.361c0.083,0.637,0.177,1.422,0.208,1.768
				c0.032,0.345,0.081,0.641,0.109,0.668c0.06,0.054,0.311-1.595,0.411-2.718c0.035-0.372,0.009-0.683-0.055-0.703
				c-0.155-0.054-0.195-4.544-0.057-6.485c0.123-1.725,0.236-2.104,0.508-1.735c0.154,0.204,0.166,0.204,0.245,0
				c0.046-0.122,0.025-0.651-0.046-1.189c-0.214-1.622-0.237-1.977-0.141-2.247c0.07-0.198,0.141-0.076,0.32,0.563
				c0.205,0.726,0.243,0.783,0.352,0.51c0.112-0.281,0.084-0.88-0.115-2.515c-0.073-0.601-0.113-0.681-0.327-0.626
				c-0.399,0.107-0.538-0.382-0.337-1.2c0.188-0.764,0.385-0.852,0.495-0.216l0.073,0.421l0.084-0.447
				c0.046-0.249,0.113-0.841,0.151-1.342c0.039-0.488,0.138-1.442,0.218-2.104c0.082-0.671,0.157-2.273,0.17-3.575
				c0.021-2.298,0.104-3.065,0.334-3.065c0.066,0,0.121,0.184,0.129,0.417c0.011,0.358,0.045,0.312,0.249-0.339
				c0.132-0.421,0.267-1.1,0.306-1.531c0.039-0.428,0.13-1.213,0.198-1.738c0.071-0.53,0.179-1.698,0.241-2.617
				c0.067-0.958,0.231-2.067,0.387-2.618c0.354-1.252,0.535-2.785,0.635-5.299c0.049-1.264,0.141-2.151,0.244-2.33
				c0.145-0.253,0.121-0.344-0.211-0.766c-0.213-0.268-0.396-0.609-0.422-0.77c-0.023-0.166-0.186-0.371-0.363-0.466
				c-0.546-0.291-1.766-0.838-1.863-0.838c-0.051,0-0.359-0.172-0.69-0.385c-0.33-0.208-0.882-0.44-1.227-0.509
				c-0.343-0.069-0.771-0.159-0.949-0.198c-0.23-0.048-0.392,0-0.545,0.171c-0.114,0.131-0.216,0.397-0.216,0.576
				c0,0.345,0.697,2.203,0.941,2.502C205.206,3.46,205.206,3.421,205.155,21.972z"/>
			<path fill="#231815" d="M228.873,52.249c-0.082-0.636-0.255-1.532-0.388-2.002c-0.139-0.474-0.245-0.982-0.245-1.151
				c0-0.165-0.118-0.61-0.261-0.995c-0.219-0.58-0.262-0.972-0.255-2.362c0.003-1.302-0.045-1.783-0.22-2.208
				c-0.12-0.296-0.26-0.544-0.298-0.544c-0.115,0-0.243,0.485-0.243,0.92c0,0.189-0.109,0.651-0.243,1.021
				c-0.152,0.429-0.261,1.123-0.292,1.889c-0.045,1.022-0.115,1.356-0.455,2.108c-0.22,0.491-0.547,1.581-0.723,2.427
				c-0.174,0.842-0.379,1.693-0.451,1.886c-0.175,0.476-0.172,0.5,0.084,0.454c0.185-0.035,0.236,0.061,0.27,0.495
				c0.039,0.535-0.221,1.212-0.758,1.967c-0.273,0.383-0.311,0.993-0.098,1.582c0.129,0.354,0.104,0.51-0.191,1.161
				c-0.402,0.88-0.764,2.426-0.971,4.135c-0.109,0.922-0.2,1.26-0.387,1.406c-0.143,0.115-0.275,0.434-0.324,0.792
				c-0.068,0.482-0.032,0.685,0.191,1.039l0.272,0.443l-0.249,0.745c-0.137,0.409-0.244,0.835-0.24,0.938
				c0.005,0.104-0.179,0.767-0.404,1.468c-0.223,0.703-0.46,1.453-0.527,1.668c-0.067,0.211-0.123,0.662-0.123,0.994
				c0,0.474-0.15,0.927-0.686,2.037c-0.677,1.419-1.229,2.178-1.229,1.696c0-0.123,0.122-0.399,0.27-0.604
				c0.209-0.297,0.272-0.602,0.292-1.419c0.018-0.79-0.007-0.984-0.11-0.812c-0.772,1.304-1.613,2.27-2.597,2.977
				c-1.2,0.867-1.23,0.493-0.051-0.628c0.894-0.845,2.181-3.421,1.712-3.421c-0.064,0-0.27,0.23-0.454,0.514
				c-0.187,0.279-0.416,0.509-0.509,0.509c-0.098,0-0.471,0.394-0.842,0.895c-0.765,1.027-1.031,1.233-2.307,1.797
				c-0.523,0.233-1.123,0.56-1.323,0.718c-0.206,0.164-0.495,0.293-0.663,0.293c-0.162,0-0.688,0.09-1.162,0.197
				c-0.472,0.11-1.097,0.188-1.38,0.167c-0.28-0.017-0.722,0.013-0.964,0.064c-0.623,0.133-3.446-0.285-5.234-0.776
				c-1.787-0.488-4.731-1.474-5.428-1.815c-0.422-0.21-1.135-0.55-1.595-0.762c-0.792-0.369-2.17-1.438-2.17-1.685
				c0-0.171,0.866,0.218,1.403,0.629c0.34,0.263,0.652,0.358,1.315,0.418c0.574,0.051,0.992,0.166,1.228,0.34
				c0.192,0.14,0.586,0.326,0.855,0.4c0.265,0.079,0.644,0.231,0.816,0.341c0.3,0.185,0.279,0.194-0.385,0.116
				c-0.86-0.099-0.752,0.043,0.385,0.492c0.84,0.332,2.704,0.642,4.787,0.793c0.629,0.048,1.814,0.197,2.618,0.333
				c0.843,0.143,1.686,0.217,1.977,0.175c0.945-0.141,2.679-0.597,2.978-0.785c0.165-0.106,0.404-0.151,0.548-0.106
				c0.293,0.093,0.882-0.25,0.882-0.514c0-0.134,0.109-0.162,0.415-0.108c0.356,0.06,0.476,0.005,0.849-0.391
				c0.313-0.331,0.477-0.424,0.587-0.331c0.282,0.232,2.235-2.746,2.235-3.409c0-0.371-0.525,0.113-0.746,0.687
				c-0.264,0.678-1.188,1.699-1.541,1.699c-0.146,0-0.561,0.202-0.919,0.448c-0.677,0.464-0.937,0.542-1.075,0.32
				c-0.085-0.142-1.336-0.177-1.336-0.04c0,0.05,0.12,0.217,0.277,0.384c0.334,0.354,0.207,0.549-0.189,0.289
				c-0.221-0.15-0.806-0.187-2.771-0.187c-3.282,0-5.821-0.391-7.89-1.207c-0.728-0.288-0.812-0.244-0.389,0.211l0.272,0.295h-0.388
				c-0.218,0-0.552-0.135-0.755-0.305c-0.201-0.164-0.632-0.369-0.962-0.456c-0.336-0.09-0.818-0.34-1.086-0.564
				c-0.266-0.22-0.807-0.568-1.19-0.769c-1.019-0.535-1.809-1.177-3.307-2.682c-1.395-1.405-1.734-1.96-0.485-0.793
				c0.434,0.403,1.471,1.089,2.555,1.699c2.183,1.222,2.695,1.46,2.937,1.367c0.099-0.036,0.485,0.058,0.868,0.21
				c0.382,0.15,1.061,0.35,1.521,0.442c1.07,0.22,3.894,0.9,4.467,1.081c0.844,0.263,2.939,0.297,4.099,0.068
				c1.406-0.28,1.522-0.325,1.2-0.46c-0.139-0.058-0.427-0.109-0.632-0.11c-0.242-0.008-0.472-0.124-0.645-0.341
				c-0.198-0.246-0.421-0.35-0.866-0.4c-0.551-0.063-0.602-0.048-0.602,0.204c0,0.208,0.076,0.272,0.318,0.272
				c0.521,0,0.359,0.2-0.305,0.372c-0.512,0.133-0.738,0.135-1.126,0.009c-0.676-0.219-0.8-0.351-0.721-0.762
				c0.038-0.19,0.012-0.393-0.058-0.433c-0.155-0.092-0.364,0.151-0.426,0.497c-0.031,0.171-0.148,0.255-0.365,0.255
				c-0.255,0-0.319-0.064-0.319-0.319c0-0.701-0.51-0.878-0.745-0.255c-0.172,0.449-0.508,0.496-1.195,0.169
				c-0.492-0.238-0.422-0.411,0.217-0.542c0.625-0.127,0.461-0.326-0.345-0.417c-1.06-0.118-2.028-0.413-3.332-0.996
				c-1.495-0.675-1.686-0.776-2.07-1.123c-1.06-0.96-1.529-1.307-1.773-1.307c-0.177,0-0.43-0.218-0.741-0.64
				c-0.265-0.354-0.549-0.638-0.65-0.638c-0.463,0-3.771-2.719-3.896-3.204c-0.075-0.284,0.027-0.235,0.755,0.364
				c2.069,1.706,3.575,2.84,3.77,2.84c0.122,0,0.38,0.141,0.598,0.322c0.382,0.321,0.792,0.425,0.792,0.204
				c0-0.156-1.112-1.081-2.158-1.799c-0.459-0.317-0.861-0.683-0.886-0.806c-0.067-0.342,0.3-0.269,0.783,0.159
				c0.537,0.474,1.064,0.575,0.999,0.197c-0.021-0.139-0.102-0.279-0.176-0.306c-0.072-0.029-0.466-0.355-0.874-0.732
				c-0.728-0.669-1.126-0.851-1.148-0.531c-0.009,0.09-0.022,0.28-0.031,0.422c-0.03,0.426-0.397,0.368-0.728-0.117
				c-0.174-0.255-0.41-0.491-0.531-0.528c-0.26-0.081-1.542-1.973-1.834-2.701c-0.309-0.778-0.176-0.931,0.248-0.28
				c0.517,0.788,1.227,1.646,1.368,1.646c0.212,0,0.12-0.243-0.247-0.663c-0.466-0.534-1.203-1.993-1.502-2.978
				c-0.366-1.201-0.309-3.868,0.129-5.974c0.189-0.909,0.379-1.738,0.424-1.852c0.165-0.436-0.244,0.023-0.534,0.601
				c-0.366,0.729-0.673,1.762-0.776,2.629c-0.102,0.856-0.426,1.979-0.568,1.979c-0.24,0-0.291-1.123-0.078-1.66
				c0.113-0.28,0.206-0.619,0.206-0.752c0-0.135,0.176-0.749,0.396-1.374c0.219-0.625,0.449-1.357,0.516-1.64
				c0.068-0.284,0.264-0.765,0.441-1.085c0.189-0.345,0.334-0.83,0.361-1.215c0.042-0.649,0.579-2.667,0.821-3.09
				c0.104-0.184,0.135-0.1,0.144,0.408c0.012,0.587,0.029,0.623,0.192,0.398c0.099-0.136,0.333-0.703,0.525-1.278
				c0.344-1.021,0.395-1.092,1.429-2.002c0.262-0.23,0.293-0.346,0.237-0.794c-0.041-0.294-0.008-0.638,0.074-0.785
				c0.083-0.144,0.187-0.772,0.237-1.412c0.094-1.226,0.369-2.152,0.844-2.861c0.163-0.242,0.293-0.506,0.293-0.6
				c0-0.23,0.496-0.561,0.714-0.478c0.102,0.039,0.18,0.009,0.18-0.071c0-0.074-0.064-0.14-0.141-0.14
				c-0.218,0-0.051-0.676,0.382-1.519c0.523-1.021,0.578-1.398,0.336-2.26c-0.539-1.903-0.585-2.247-0.438-3.191
				c0.13-0.83,0.119-0.97-0.127-1.636c-0.18-0.484-0.268-1.028-0.268-1.627v-0.9l-0.932-0.934c-0.805-0.803-1.833-1.466-2.276-1.466
				c-0.108,0-1.276-0.511-2.271-0.998c-0.25-0.122-0.729-0.379-1.086-0.586c-0.688-0.398-2.396-0.768-2.604-0.562
				c-0.13,0.131,0.269,1.291,0.871,2.526c0.529,1.084,0.561,1.365,0.332,2.901c-0.147,0.979-0.375,1.743-0.952,3.184
				c-0.42,1.045-0.944,2.352-1.168,2.917c-0.226,0.562-0.575,1.395-0.776,1.853c-0.968,2.208-2.808,7.445-3.316,9.447
				c-0.151,0.602-0.327,1.147-0.39,1.228c-0.286,0.357-0.627,4.135-0.627,6.982c0,2.081-0.044,2.972-0.159,3.154
				c-0.136,0.218-0.122,0.28,0.107,0.444c0.364,0.251,0.464,1.038,0.198,1.509c-0.18,0.317-0.173,0.441,0.084,1.525
				c0.153,0.651,0.281,1.577,0.281,2.062c0,1.111,0.093,1.404,1.098,3.473c0.851,1.75,0.909,1.952,0.67,2.337
				c-0.124,0.205-0.074,0.347,0.308,0.882c0.255,0.358,0.552,0.827,0.677,1.067c0.121,0.233,0.478,0.738,0.791,1.121
				c0.313,0.385,0.699,0.96,0.86,1.284c0.161,0.32,0.391,0.668,0.506,0.767c0.112,0.097,0.317,0.385,0.447,0.622
				c0.269,0.516,0.876,1.109,1.96,1.923c0.407,0.309,0.866,0.707,1.02,0.889c0.158,0.188,0.564,0.495,0.92,0.701
				c0.895,0.517,3.379,2.202,3.767,2.552c0.56,0.509,1.916,1.366,2.796,1.771c0.962,0.442,1.265,0.531,2.923,0.864
				c0.659,0.136,1.93,0.477,2.851,0.769c3.471,1.099,5.747,1.474,6.753,1.115c0.734-0.265,0.446-0.413-0.83-0.436
				c-2.299-0.036-4.313-0.419-6.002-1.131c-0.28-0.118-0.647-0.27-0.817-0.334c-0.642-0.246-0.102-0.253,1.036-0.01
				c2.692,0.577,2.808,0.584,6.064,0.437c1.597-0.073,2.108-0.136,2.286-0.293c0.384-0.339,0.638-0.377,1.226-0.196
				c0.385,0.114,0.66,0.129,0.92,0.04c0.255-0.088,0.44-0.08,0.598,0.016c0.299,0.19,0.983,0.195,1.712,0.014
				c0.517-0.129,0.615-0.223,0.982-0.912c0.381-0.713,0.955-1.251,1.341-1.251c0.224,0,0.208,0.538-0.021,0.845
				c-0.278,0.369-0.237,0.561,0.126,0.561c0.317,0,0.444,0.291,0.19,0.445c-0.069,0.044-0.126,0.182-0.126,0.296
				c0,0.135,0.392-0.184,1.033-0.838c0.826-0.841,1.145-1.08,1.594-1.192c0.537-0.133,0.564-0.164,0.564-0.633
				c0-0.457,0.025-0.492,0.394-0.53l0.397-0.037l0.044-1.275c0.024-0.703,0.102-1.51,0.173-1.786
				c0.168-0.665,0.177-2.618,0.012-2.618c-0.077,0-0.128,0.048-0.128,0.125c0,0.071-0.063,0.129-0.14,0.129
				c-0.415,0,0.626-3.4,1.098-3.581c0.185-0.069,0.32-0.353,0.494-1.042c0.316-1.238,0.486-1.51,0.389-0.614
				c-0.043,0.386-0.125,0.933-0.188,1.208c-0.075,0.346-0.058,0.628,0.058,0.893c0.093,0.216,0.234,0.639,0.319,0.948
				c0.085,0.306,0.19,0.515,0.235,0.472c0.046-0.045,0.121-0.486,0.167-0.973c0.053-0.548,0.164-0.974,0.293-1.115
				c0.25-0.273,0.595-1.341,0.595-1.839c0-0.19,0.138-0.791,0.308-1.343c0.165-0.541,0.4-1.653,0.514-2.442
				c0.117-0.791,0.268-1.558,0.336-1.687c0.067-0.133,0.118-0.434,0.118-0.689c0-0.279,0.1-0.551,0.259-0.708
				c0.136-0.138,0.254-0.427,0.254-0.631c0-0.232,0.123-0.515,0.319-0.724c0.263-0.282,0.319-0.474,0.319-1.058
				c0-0.398,0.088-0.97,0.198-1.286C228.989,53.49,228.999,53.232,228.873,52.249z"/>
			<path fill="#231815" d="M207.625,62.323l0.237,0.354l0.105-0.295c0.124-0.331-0.011-2.59-0.157-2.646
				c-0.048-0.019-0.205-0.117-0.332-0.208c-0.231-0.165-0.231-0.188,0.013-0.453c0.367-0.402,0.394-2.759,0.052-4.583
				c-0.134-0.728-0.208-1.371-0.168-1.438c0.045-0.068-0.02-0.23-0.146-0.369c-0.121-0.136-0.267-0.569-0.32-0.953
				c-0.053-0.396-0.211-0.851-0.363-1.04c-0.15-0.191-0.268-0.44-0.268-0.575c0-0.125-0.087-0.235-0.191-0.235
				c-0.107,0-0.19,0.11-0.19,0.248c0,0.142,0.054,0.282,0.126,0.326s0.129,0.372,0.129,0.74c0,0.527-0.056,0.698-0.255,0.824
				c-0.292,0.183-0.353,0.799-0.078,0.799c0.269,0,0.329,0.292,0.187,0.904c-0.179,0.761-0.02,6.692,0.246,9.244
				c0.05,0.499,0.062,1.289,0.021,1.788c-0.037,0.5-0.027,0.978,0.026,1.085s0.127,0.294,0.165,0.423
				c0.039,0.126,0.135,0.191,0.217,0.142c0.099-0.06,0.124-0.405,0.072-1.054c-0.058-0.69-0.025-1.089,0.107-1.398
				c0.1-0.24,0.185-0.675,0.185-0.972c0-0.294,0.077-0.642,0.173-0.771C207.38,61.985,207.402,61.991,207.625,62.323z"/>
			<path fill="#231815" d="M192.618,61.616c0,0.269,0.162,0.523,0.33,0.523c0.271,0,0.218-0.355-0.076-0.518
				C192.718,61.544,192.618,61.54,192.618,61.616z"/>
			<path fill="#231815" d="M207.479,68.381l-0.344-0.318c-0.218-0.199-0.377-0.51-0.428-0.828c-0.076-0.486-0.302-0.714-0.302-0.307
				c0,0.113,0.063,0.604,0.14,1.106c0.131,0.828,0.121,0.926-0.12,1.256c-0.283,0.382-0.247,0.51,0.133,0.51
				c0.15,0,0.258,0.122,0.309,0.352c0.04,0.192,0.091,0.409,0.107,0.48c0.019,0.07,0.101-0.122,0.184-0.431
				c0.131-0.471,0.125-0.586-0.042-0.771c-0.264-0.293-0.254-0.382,0.078-0.739L207.479,68.381z"/>
			<path fill="#231815" d="M219.901,67.272c0.036-0.09,0.031-0.201-0.014-0.242c-0.038-0.042-0.069,0.038-0.061,0.165
				C219.833,67.347,219.863,67.378,219.901,67.272z"/>
			<path fill="#231815" d="M200.339,67.886c0.044-0.071-0.023-0.129-0.151-0.129c-0.243,0-1.442-0.289-1.851-0.449
				c-0.129-0.046-0.231-0.057-0.231-0.016c0,0.036,0.307,0.217,0.691,0.399C199.499,68.026,200.202,68.113,200.339,67.886z"/>
			<path fill="#231815" d="M203.214,68.396c0.281,0,0.322-0.14,0.103-0.359c-0.192-0.189-0.314-0.195-0.424-0.023
				C202.773,68.205,202.934,68.396,203.214,68.396z"/>
			<path fill="#231815" d="M203.432,69.545c0.203,0,0.292-0.073,0.292-0.242c0-0.357-0.153-0.408-0.486-0.16
				C202.91,69.39,202.983,69.545,203.432,69.545z"/>
			<path fill="#231815" d="M205.259,69.545c0,0.078,0.049,0.127,0.125,0.127s0.128-0.049,0.128-0.127
				c0-0.077-0.052-0.128-0.128-0.128S205.259,69.468,205.259,69.545z"/>
			<path fill="#231815" d="M210.493,69.417c-0.078,0-0.13,0.051-0.13,0.128c0,0.078,0.052,0.127,0.13,0.127
				c0.077,0,0.125-0.049,0.125-0.127C210.618,69.468,210.57,69.417,210.493,69.417z"/>
			<path fill="#231815" d="M221.089,69.954c0-0.306-0.065-0.354-0.193-0.142c-0.05,0.078-0.023,0.203,0.052,0.282
				C221.051,70.197,221.089,70.158,221.089,69.954z"/>
			<path fill="#231815" d="M219.315,71.46c0.16,0,0.497-0.779,0.497-1.148c0-0.423-0.208-0.28-0.425,0.295
				C219.142,71.243,219.124,71.46,219.315,71.46z"/>
			<path fill="#231815" d="M220.452,72.099c0.18,0,0.383-0.435,0.383-0.819c0-0.38-0.193-0.427-0.374-0.088
				C220.296,71.498,220.291,72.099,220.452,72.099z"/>
			<path fill="#231815" d="M213.209,72.987c0.064,0.003,0.302-0.145,0.519-0.322c0.218-0.175,0.579-0.467,0.786-0.636
				c0.467-0.38,0.279-0.411-0.307-0.055c-0.432,0.266-0.676,0.273-1.572,0.055c-0.226-0.055-0.355-0.036-0.355,0.056
				C212.28,72.24,213.046,72.984,213.209,72.987z"/>
			<path fill="#231815" d="M215.547,72.548c0.145-0.374-0.156-0.496-0.458-0.195c-0.192,0.195-0.24,0.322-0.155,0.41
				C215.108,72.933,215.448,72.811,215.547,72.548z"/>
			<path fill="#231815" d="M216.493,72.675c0.127-0.078,0.424-0.576,0.346-0.576c-0.029,0-0.145,0.103-0.259,0.229
				C216.351,72.583,216.297,72.797,216.493,72.675z"/>
			<path fill="#231815" d="M212.919,79.888c-0.074,0-0.128,0.055-0.128,0.132c0,0.078,0.054,0.104,0.128,0.058
				c0.075-0.044,0.127-0.097,0.127-0.135C213.046,79.91,212.995,79.888,212.919,79.888z"/>
			<path fill="#231815" d="M211.896,80.014c-0.142,0-0.255,0.086-0.255,0.194c0,0.208,0.027,0.219,0.307,0.111
				C212.237,80.209,212.204,80.014,211.896,80.014z"/>
		</g>
	</g>
	<g>
		<g>
			<path fill="#231815" d="M45.05,33.144h-5.361c0.764-1.489,1.493-3.046,2.138-4.667c0.819-0.268,1.26-0.5,1.26-0.765
				c0-0.327-0.232-0.594-0.704-0.793l-4.099-1.288c-0.351,2.515-0.848,5.032-1.492,7.478v-0.099l-2.638-2.22l-1.701,2.22h-3.951
				c0.7-1.389,1.465-2.95,2.223-4.665c0.823-0.266,1.261-0.566,1.261-0.898c0-0.329-0.174-0.528-0.528-0.663l-4.394-1.286
				c-1.23,6.289-2.545,11.185-4.012,14.625l0.47,0.497c1.375-1.457,2.871-3.707,4.479-6.715h0.323v21.476l3.895-0.527V33.906h4.365
				c-0.672,2.349-1.493,4.667-2.43,6.978l0.466,0.269c1.7-2.25,3.223-4.6,4.571-7.117h2.082v16.681h-4.6v0.795
				c1.022,0.131,1.786,0.366,2.256,0.631c0.646,0.427,0.996,1.058,0.996,1.92c0.028,0.86,0.35,1.319,0.993,1.319
				c1.115,0,2.14-0.36,3.017-1.056c0.877-0.73,1.32-1.757,1.32-3.078V34.036h4.365v-0.892l-2.875-2.451L45.05,33.144z"/>
			<path fill="#231815" d="M74.334,55.048c0.368-1.744,1.216-2.751,2.547-3.153l0.083-0.903c-1.98-0.906-3.708-2.282-5.237-4.159
				c1.332-2.819,2.606-7.179,3.823-13.015c0.734-0.236,1.103-0.504,1.103-0.77c0-0.234-0.171-0.472-0.457-0.737l-2.768-2.417
				L71.9,31.872h-8.295v-3.555h5.069v-0.905l-2.524-2.247l-1.667,2.247H50.979l0.339,0.905h1.983v18.447l-2.632,0.167l1.271,4.328
				c0.173,0.603,0.401,0.903,0.71,0.903c0.168,0,0.396-0.467,0.651-1.442l6.65-3.117v7.846l3.426-0.503l0.227,0.772
				c2.719-1.608,4.841-3.521,6.373-5.734C71.133,51.759,72.576,53.438,74.334,55.048z M59.952,46.358l-3.114,0.204v-5.397h3.114
				V46.358z M59.952,40.254h-3.114v-5.362h3.114V40.254z M59.952,33.952h-3.114v-5.635h3.114V33.952z M63.604,54.646V32.778h1.273
				c0.622,5.435,1.642,9.892,3.058,13.381c0.108,0.27,0.226,0.573,0.363,0.839C67.286,49.478,65.727,52.029,63.604,54.646z
				 M69.493,43.578c-1.643-2.818-2.886-6.407-3.793-10.8h6.313C71.193,37.137,70.343,40.76,69.493,43.578z"/>
			<g>
				<path fill="#231815" d="M82.589,41.191h18.949l-0.84,2.303l-1.923-1.532l-1.833,2.108H82.994l0.345,0.866h6.925v5.497h-4.599
					v0.769c1.063,0.128,1.806,0.352,2.301,0.606c0.686,0.448,1.029,1.122,1.029,1.954c0.028,0.86,0.368,1.311,1.023,1.311
					c1.179,0,2.203-0.352,3.133-1.025c0.905-0.701,1.37-1.695,1.37-2.975v-6.137h6.926v-0.545l3.51-1.568
					c0.806-0.19,1.214-0.446,1.214-0.764c0-0.262-0.158-0.515-0.473-0.705l-3.038-2.401l-1.122,1.375H82.564
					c-0.063-0.448-0.127-0.925-0.192-1.375h-0.835c-0.277,1.502-0.711,2.401-1.305,2.69c-0.372,0.125-0.804,0.416-1.366,0.926
					c-0.402,0.317-0.62,0.67-0.62,1.117c0.061,1.439,0.809,2.143,2.207,2.143c0.523,0,1.02-0.286,1.489-0.925
					c0.405-0.513,0.624-1.506,0.683-2.942C82.624,41.704,82.589,41.444,82.589,41.191z"/>
				<path fill="#231815" d="M101.538,38.573v-3.361c0.75-0.45,1.122-0.829,1.122-1.152c0-0.316-0.284-0.637-0.84-1.019l-3.167-1.953
					l-1.214,1.729H86.504l-3.291-1.376v7.997l4.008-0.614V38.06h10.218v1.146L101.538,38.573z M87.221,37.194v-3.485h10.218v3.485
					H87.221z"/>
				<path fill="#231815" d="M90.141,29.843H79.115l0.34,0.859h26.464v-0.859L103,27.571l-1.804,2.272h-6.925v-1.89
					c0.874-0.32,1.337-0.672,1.337-0.992c0-0.384-0.372-0.636-1.053-0.735l-4.414-0.415V29.843z"/>
			</g>
		</g>
		<g>
			<path fill="none" stroke="#FFFFFF" stroke-width="2" stroke-linejoin="round" d="M45.05,33.144h-5.361
				c0.764-1.489,1.493-3.046,2.138-4.667c0.819-0.268,1.26-0.5,1.26-0.765c0-0.327-0.232-0.594-0.704-0.793l-4.099-1.288
				c-0.351,2.515-0.848,5.032-1.492,7.478v-0.099l-2.638-2.22l-1.701,2.22h-3.951c0.7-1.389,1.465-2.95,2.223-4.665
				c0.823-0.266,1.261-0.566,1.261-0.898c0-0.329-0.174-0.528-0.528-0.663l-4.394-1.286c-1.23,6.289-2.545,11.185-4.012,14.625
				l0.47,0.497c1.375-1.457,2.871-3.707,4.479-6.715h0.323v21.476l3.895-0.527V33.906h4.365c-0.672,2.349-1.493,4.667-2.43,6.978
				l0.466,0.269c1.7-2.25,3.223-4.6,4.571-7.117h2.082v16.681h-4.6v0.795c1.022,0.131,1.786,0.366,2.256,0.631
				c0.646,0.427,0.996,1.058,0.996,1.92c0.028,0.86,0.35,1.319,0.993,1.319c1.115,0,2.14-0.36,3.017-1.056
				c0.877-0.73,1.32-1.757,1.32-3.078V34.036h4.365v-0.892l-2.875-2.451L45.05,33.144z"/>
			<path fill="none" stroke="#FFFFFF" stroke-width="2" stroke-linejoin="round" d="M74.334,55.048
				c0.368-1.744,1.216-2.751,2.547-3.153l0.083-0.903c-1.98-0.906-3.708-2.282-5.237-4.159c1.332-2.819,2.606-7.179,3.823-13.015
				c0.734-0.236,1.103-0.504,1.103-0.77c0-0.234-0.171-0.472-0.457-0.737l-2.768-2.417L71.9,31.872h-8.295v-3.555h5.069v-0.905
				l-2.524-2.247l-1.667,2.247H50.979l0.339,0.905h1.983v18.447l-2.632,0.167l1.271,4.328c0.173,0.603,0.401,0.903,0.71,0.903
				c0.168,0,0.396-0.467,0.651-1.442l6.65-3.117v7.846l3.426-0.503l0.227,0.772c2.719-1.608,4.841-3.521,6.373-5.734
				C71.133,51.759,72.576,53.438,74.334,55.048z M59.952,46.358l-3.114,0.204v-5.397h3.114V46.358z M59.952,40.254h-3.114v-5.362
				h3.114V40.254z M59.952,33.952h-3.114v-5.635h3.114V33.952z M63.604,54.646V32.778h1.273c0.622,5.435,1.642,9.892,3.058,13.381
				c0.108,0.27,0.226,0.573,0.363,0.839C67.286,49.478,65.727,52.029,63.604,54.646z M69.493,43.578
				c-1.643-2.818-2.886-6.407-3.793-10.8h6.313C71.193,37.137,70.343,40.76,69.493,43.578z"/>
			<g>
				<path fill="none" stroke="#FFFFFF" stroke-width="2" stroke-linejoin="round" d="M82.589,41.191h18.949l-0.84,2.303
					l-1.923-1.532l-1.833,2.108H82.994l0.345,0.866h6.925v5.497h-4.599v0.769c1.063,0.128,1.806,0.352,2.301,0.606
					c0.686,0.448,1.029,1.122,1.029,1.954c0.028,0.86,0.368,1.311,1.023,1.311c1.179,0,2.203-0.352,3.133-1.025
					c0.905-0.701,1.37-1.695,1.37-2.975v-6.137h6.926v-0.545l3.51-1.568c0.806-0.19,1.214-0.446,1.214-0.764
					c0-0.262-0.158-0.515-0.473-0.705l-3.038-2.401l-1.122,1.375H82.564c-0.063-0.448-0.127-0.925-0.192-1.375h-0.835
					c-0.277,1.502-0.711,2.401-1.305,2.69c-0.372,0.125-0.804,0.416-1.366,0.926c-0.402,0.317-0.62,0.67-0.62,1.117
					c0.061,1.439,0.809,2.143,2.207,2.143c0.523,0,1.02-0.286,1.489-0.925c0.405-0.513,0.624-1.506,0.683-2.942
					C82.624,41.704,82.589,41.444,82.589,41.191z"/>
				<path fill="none" stroke="#FFFFFF" stroke-width="2" stroke-linejoin="round" d="M101.538,38.573v-3.361
					c0.75-0.45,1.122-0.829,1.122-1.152c0-0.316-0.284-0.637-0.84-1.019l-3.167-1.953l-1.214,1.729H86.504l-3.291-1.376v7.997
					l4.008-0.614V38.06h10.218v1.146L101.538,38.573z M87.221,37.194v-3.485h10.218v3.485H87.221z"/>
				<path fill="none" stroke="#FFFFFF" stroke-width="2" stroke-linejoin="round" d="M90.141,29.843H79.115l0.34,0.859h26.464
					v-0.859L103,27.571l-1.804,2.272h-6.925v-1.89c0.874-0.32,1.337-0.672,1.337-0.992c0-0.384-0.372-0.636-1.053-0.735
					l-4.414-0.415V29.843z"/>
			</g>
		</g>
		<g>
			<path fill="#231815" d="M45.05,33.144h-5.361c0.764-1.489,1.493-3.046,2.138-4.667c0.819-0.268,1.26-0.5,1.26-0.765
				c0-0.327-0.232-0.594-0.704-0.793l-4.099-1.288c-0.351,2.515-0.848,5.032-1.492,7.478v-0.099l-2.638-2.22l-1.701,2.22h-3.951
				c0.7-1.389,1.465-2.95,2.223-4.665c0.823-0.266,1.261-0.566,1.261-0.898c0-0.329-0.174-0.528-0.528-0.663l-4.394-1.286
				c-1.23,6.289-2.545,11.185-4.012,14.625l0.47,0.497c1.375-1.457,2.871-3.707,4.479-6.715h0.323v21.476l3.895-0.527V33.906h4.365
				c-0.672,2.349-1.493,4.667-2.43,6.978l0.466,0.269c1.7-2.25,3.223-4.6,4.571-7.117h2.082v16.681h-4.6v0.795
				c1.022,0.131,1.786,0.366,2.256,0.631c0.646,0.427,0.996,1.058,0.996,1.92c0.028,0.86,0.35,1.319,0.993,1.319
				c1.115,0,2.14-0.36,3.017-1.056c0.877-0.73,1.32-1.757,1.32-3.078V34.036h4.365v-0.892l-2.875-2.451L45.05,33.144z"/>
			<path fill="#231815" d="M74.334,55.048c0.368-1.744,1.216-2.751,2.547-3.153l0.083-0.903c-1.98-0.906-3.708-2.282-5.237-4.159
				c1.332-2.819,2.606-7.179,3.823-13.015c0.734-0.236,1.103-0.504,1.103-0.77c0-0.234-0.171-0.472-0.457-0.737l-2.768-2.417
				L71.9,31.872h-8.295v-3.555h5.069v-0.905l-2.524-2.247l-1.667,2.247H50.979l0.339,0.905h1.983v18.447l-2.632,0.167l1.271,4.328
				c0.173,0.603,0.401,0.903,0.71,0.903c0.168,0,0.396-0.467,0.651-1.442l6.65-3.117v7.846l3.426-0.503l0.227,0.772
				c2.719-1.608,4.841-3.521,6.373-5.734C71.133,51.759,72.576,53.438,74.334,55.048z M59.952,46.358l-3.114,0.204v-5.397h3.114
				V46.358z M59.952,40.254h-3.114v-5.362h3.114V40.254z M59.952,33.952h-3.114v-5.635h3.114V33.952z M63.604,54.646V32.778h1.273
				c0.622,5.435,1.642,9.892,3.058,13.381c0.108,0.27,0.226,0.573,0.363,0.839C67.286,49.478,65.727,52.029,63.604,54.646z
				 M69.493,43.578c-1.643-2.818-2.886-6.407-3.793-10.8h6.313C71.193,37.137,70.343,40.76,69.493,43.578z"/>
			<g>
				<path fill="#231815" d="M82.589,41.191h18.949l-0.84,2.303l-1.923-1.532l-1.833,2.108H82.994l0.345,0.866h6.925v5.497h-4.599
					v0.769c1.063,0.128,1.806,0.352,2.301,0.606c0.686,0.448,1.029,1.122,1.029,1.954c0.028,0.86,0.368,1.311,1.023,1.311
					c1.179,0,2.203-0.352,3.133-1.025c0.905-0.701,1.37-1.695,1.37-2.975v-6.137h6.926v-0.545l3.51-1.568
					c0.806-0.19,1.214-0.446,1.214-0.764c0-0.262-0.158-0.515-0.473-0.705l-3.038-2.401l-1.122,1.375H82.564
					c-0.063-0.448-0.127-0.925-0.192-1.375h-0.835c-0.277,1.502-0.711,2.401-1.305,2.69c-0.372,0.125-0.804,0.416-1.366,0.926
					c-0.402,0.317-0.62,0.67-0.62,1.117c0.061,1.439,0.809,2.143,2.207,2.143c0.523,0,1.02-0.286,1.489-0.925
					c0.405-0.513,0.624-1.506,0.683-2.942C82.624,41.704,82.589,41.444,82.589,41.191z"/>
				<path fill="#231815" d="M101.538,38.573v-3.361c0.75-0.45,1.122-0.829,1.122-1.152c0-0.316-0.284-0.637-0.84-1.019l-3.167-1.953
					l-1.214,1.729H86.504l-3.291-1.376v7.997l4.008-0.614V38.06h10.218v1.146L101.538,38.573z M87.221,37.194v-3.485h10.218v3.485
					H87.221z"/>
				<path fill="#231815" d="M90.141,29.843H79.115l0.34,0.859h26.464v-0.859L103,27.571l-1.804,2.272h-6.925v-1.89
					c0.874-0.32,1.337-0.672,1.337-0.992c0-0.384-0.372-0.636-1.053-0.735l-4.414-0.415V29.843z"/>
			</g>
		</g>
	</g>
	<g>
		<path fill="#231815" d="M67.099,9.881h-1.888v5.797h-0.696V9.881h-1.879V9.294h4.463V9.881z"/>
		<path fill="#231815" d="M72.872,15.679h-0.738l-0.688-2.072h-2.224l-0.671,2.072h-0.712l2.114-6.394h0.806L72.872,15.679z
			 M71.302,13.053l-0.629-1.896c-0.135-0.436-0.243-0.839-0.327-1.216h-0.025c-0.084,0.387-0.201,0.79-0.319,1.192l-0.637,1.921
			H71.302z"/>
		<path fill="#231815" d="M78.677,15.679h-0.822l-2.089-3.205L75.17,13.17v2.509h-0.696V9.285h0.696v3.122h0.034
			c0.159-0.244,0.335-0.479,0.495-0.688l1.946-2.434h0.856l-2.249,2.719L78.677,15.679z"/>
		<path fill="#231815" d="M83.375,15.679h-3.372V9.285h3.229v0.588h-2.534v2.164h2.383v0.58h-2.383v2.475h2.677V15.679z"/>
		<path fill="#231815" d="M88.821,9.881h-1.888v5.797h-0.696V9.881h-1.879V9.294h4.463V9.881z"/>
		<path fill="#231815" d="M95.298,12.424c0,2.248-1.259,3.355-2.768,3.355c-1.586,0-2.71-1.25-2.71-3.247
			c0-2.081,1.183-3.347,2.786-3.347C94.241,9.186,95.298,10.493,95.298,12.424z M90.549,12.516c0,1.359,0.705,2.685,2.005,2.685
			c1.317,0,2.013-1.284,2.013-2.744c0-1.284-0.628-2.693-1.996-2.693C91.162,9.764,90.549,11.156,90.549,12.516z"/>
		<path fill="#231815" d="M99.518,12.617c0.495,0.159,0.789,0.638,0.94,1.334c0.201,0.923,0.344,1.485,0.469,1.728h-0.721
			c-0.1-0.185-0.243-0.747-0.411-1.544c-0.185-0.89-0.537-1.283-1.293-1.283h-0.779v2.827h-0.696V9.378
			c0.395-0.083,0.947-0.134,1.451-0.134c0.83,0,1.375,0.167,1.754,0.521c0.302,0.277,0.478,0.713,0.478,1.191
			c0,0.848-0.512,1.393-1.191,1.636V12.617z M98.545,12.315c0.889,0,1.459-0.504,1.459-1.276c0-0.949-0.713-1.241-1.493-1.241
			c-0.377,0-0.646,0.033-0.788,0.067v2.45H98.545z"/>
		<path fill="#231815" d="M102.53,9.285h0.697v6.394h-0.697V9.285z"/>
		<path fill="#231815" d="M109.074,9.881h-1.888v5.797h-0.696V9.881h-1.879V9.294h4.463V9.881z"/>
		<path fill="#231815" d="M113.814,15.679h-3.373V9.285h3.229v0.588h-2.533v2.164h2.383v0.58h-2.383v2.475h2.677V15.679z"/>
		<path fill="#231815" d="M115.517,9.285h0.696v6.394h-0.696V9.285z"/>
		<path fill="#231815" d="M129.604,15.679h-0.688l-0.158-2.878c-0.051-0.914-0.118-2.097-0.11-2.752h-0.024
			c-0.21,0.722-0.47,1.51-0.781,2.4l-1.141,3.204h-0.513l-1.064-3.138c-0.31-0.923-0.553-1.729-0.729-2.467h-0.024
			c-0.019,0.78-0.067,1.838-0.127,2.819l-0.176,2.811h-0.662l0.443-6.394h0.856l1.123,3.247c0.269,0.797,0.479,1.477,0.647,2.14
			h0.023c0.16-0.646,0.379-1.317,0.664-2.14l1.166-3.247h0.873L129.604,15.679z"/>
		<path fill="#231815" d="M136.097,15.679h-0.739l-0.688-2.072h-2.223l-0.67,2.072h-0.715l2.115-6.394h0.806L136.097,15.679z
			 M134.53,13.053l-0.63-1.896c-0.134-0.436-0.243-0.839-0.328-1.216h-0.025c-0.083,0.387-0.201,0.79-0.317,1.192l-0.639,1.921
			H134.53z"/>
		<path fill="#231815" d="M140.191,12.617c0.495,0.159,0.789,0.638,0.939,1.334c0.201,0.923,0.345,1.485,0.47,1.728h-0.721
			c-0.101-0.185-0.242-0.747-0.411-1.544c-0.185-0.89-0.536-1.283-1.292-1.283h-0.779v2.827H137.7V9.378
			c0.395-0.083,0.947-0.134,1.451-0.134c0.831,0,1.375,0.167,1.755,0.521c0.301,0.277,0.478,0.713,0.478,1.191
			c0,0.848-0.512,1.393-1.192,1.636V12.617z M139.218,12.315c0.89,0,1.46-0.504,1.46-1.276c0-0.949-0.713-1.241-1.494-1.241
			c-0.377,0-0.646,0.033-0.787,0.067v2.45H139.218z"/>
		<path fill="#231815" d="M147.608,13.111c0,1.922-0.99,2.668-2.266,2.668c-1.191,0-2.139-0.696-2.139-2.625V9.294h0.697v3.867
			c0,1.451,0.637,2.039,1.477,2.039c0.922,0,1.534-0.621,1.534-2.039V9.294h0.696V13.111z"/>
		<path fill="#231815" d="M153.825,9.285l-2.055,3.649v2.744h-0.697v-2.727l-1.945-3.667h0.797l0.89,1.788
			c0.243,0.478,0.444,0.889,0.637,1.351h0.025c0.176-0.429,0.395-0.865,0.646-1.359l0.924-1.779H153.825z"/>
		<path fill="#231815" d="M159.547,15.679h-0.738l-0.688-2.072h-2.224l-0.671,2.072h-0.713l2.113-6.394h0.806L159.547,15.679z
			 M157.979,13.053l-0.63-1.896c-0.134-0.436-0.243-0.839-0.327-1.216h-0.024c-0.084,0.387-0.202,0.79-0.319,1.192l-0.637,1.921
			H157.979z"/>
		<path fill="#231815" d="M167.183,15.679h-0.689l-0.158-2.878c-0.05-0.914-0.117-2.097-0.11-2.752h-0.023
			c-0.211,0.722-0.47,1.51-0.781,2.4l-1.142,3.204h-0.511l-1.065-3.138c-0.311-0.923-0.554-1.729-0.729-2.467h-0.025
			c-0.018,0.78-0.067,1.838-0.127,2.819l-0.176,2.811h-0.662l0.443-6.394h0.857l1.123,3.247c0.268,0.797,0.479,1.477,0.646,2.14
			h0.024c0.159-0.646,0.379-1.317,0.663-2.14l1.167-3.247h0.872L167.183,15.679z"/>
		<path fill="#231815" d="M173.675,15.679h-0.738l-0.688-2.072h-2.222l-0.672,2.072h-0.715l2.115-6.394h0.806L173.675,15.679z
			 M172.108,13.053l-0.629-1.896c-0.135-0.436-0.244-0.839-0.329-1.216h-0.024c-0.084,0.387-0.202,0.79-0.318,1.192l-0.639,1.921
			H172.108z"/>
	</g>
</g>
</svg>
