<?xml version="1.0" encoding="utf-8"?>
<!-- Generator: Adobe Illustrator 16.0.0, SVG Export Plug-In . SVG Version: 6.00 Build 0)  -->
<!DOCTYPE svg PUBLIC "-//W3C//DTD SVG 1.1//EN" "http://www.w3.org/Graphics/SVG/1.1/DTD/svg11.dtd">
<svg version="1.1" id="レイヤー_1" xmlns="http://www.w3.org/2000/svg" xmlns:xlink="http://www.w3.org/1999/xlink" x="0px"
	 y="0px" width="26.961px" height="34.395px" viewBox="0 0 26.961 34.395" enable-background="new 0 0 26.961 34.395"
	 xml:space="preserve">
<g>
	<path fill="#333333" d="M2.235,31.219c0.157,1.797,1.664,3.176,3.467,3.176h15.554c1.805,0,3.311-1.379,3.47-3.176l1.724-22.565
		H0.511L2.235,31.219z M18.396,14.903c0.024-0.395,0.362-0.698,0.758-0.673c0.395,0.023,0.695,0.366,0.671,0.758l-0.68,13.585
		c-0.024,0.396-0.364,0.695-0.757,0.674c-0.396-0.024-0.695-0.363-0.672-0.76L18.396,14.903z M12.765,14.945
		c0-0.396,0.318-0.715,0.716-0.715c0.394,0,0.715,0.319,0.715,0.715v13.589c0,0.392-0.321,0.713-0.715,0.713
		c-0.397,0-0.716-0.321-0.716-0.713V14.945z M7.806,14.23c0.396-0.025,0.732,0.278,0.757,0.673l0.681,13.583
		c0.023,0.396-0.276,0.735-0.672,0.76c-0.393,0.021-0.732-0.278-0.757-0.674L7.134,14.988C7.111,14.596,7.41,14.253,7.806,14.23z"/>
	<path fill="#333333" d="M25.782,4.333c0,0-2.29-0.379-2.912-0.569c-0.558-0.168-5.427-0.91-5.427-0.91l-0.185-1.298
		C17.134,0.662,16.401,0,15.539,0H13.48h-2.06C10.559,0,9.827,0.662,9.7,1.556L9.518,2.854c0,0-4.869,0.741-5.429,0.91
		c-0.621,0.19-2.91,0.569-2.91,0.569C0.483,4.526,0,5.184,0,5.938V7.41h13.48h13.48V5.938C26.961,5.184,26.478,4.526,25.782,4.333z
		 M14.845,2.608h-2.729c-0.244,0-0.44-0.196-0.44-0.439c0-0.244,0.196-0.44,0.44-0.44h2.729c0.243,0,0.441,0.196,0.441,0.44
		C15.286,2.412,15.088,2.608,14.845,2.608z"/>
</g>
</svg>
