<?xml version="1.0" encoding="utf-8"?>
<!-- Generator: Adobe Illustrator 16.0.0, SVG Export Plug-In . SVG Version: 6.00 Build 0)  -->
<!DOCTYPE svg PUBLIC "-//W3C//DTD SVG 1.1//EN" "http://www.w3.org/Graphics/SVG/1.1/DTD/svg11.dtd">
<svg version="1.1" id="レイヤー_1" xmlns="http://www.w3.org/2000/svg" xmlns:xlink="http://www.w3.org/1999/xlink" x="0px"
	 y="0px" width="34px" height="36px" viewBox="0 0 34 36" enable-background="new 0 0 34 36" xml:space="preserve">
<g>
	<g>
		<g>
			<path d="M9.72,3.16L8.558,3.425C8.447,2.719,8.139,2.366,7.634,2.366c-0.781,0-1.171,0.619-1.171,1.858
				c0,1.245,0.39,1.867,1.171,1.867c0.551,0,0.884-0.365,0.999-1.096l1.115,0.307C9.611,5.878,9.337,6.308,8.925,6.593
				C8.569,6.841,8.129,6.965,7.606,6.965c-0.793,0-1.4-0.272-1.821-0.818C5.419,5.67,5.236,5.035,5.236,4.243
				c0-0.908,0.242-1.609,0.725-2.104c0.418-0.431,0.966-0.646,1.645-0.646c0.601,0,1.088,0.164,1.463,0.493
				C9.395,2.27,9.611,2.662,9.72,3.16z"/>
			<path d="M11.029,2.923c0.27-0.96,0.99-1.44,2.161-1.44c1.35,0,2.025,0.578,2.025,1.733v2.072c0,0.505,0.028,1.019,0.083,1.542
				h-1.101c-0.034-0.195-0.063-0.423-0.088-0.683c-0.375,0.539-0.923,0.809-1.645,0.809c-0.517,0-0.923-0.158-1.217-0.474
				c-0.26-0.278-0.391-0.638-0.391-1.078c0-0.929,0.568-1.503,1.705-1.724c0.421-0.081,0.918-0.13,1.491-0.148V3.234
				c0-0.347-0.082-0.593-0.246-0.739c-0.143-0.124-0.362-0.186-0.66-0.186c-0.272,0-0.499,0.088-0.678,0.265
				c-0.164,0.161-0.271,0.378-0.321,0.65L11.029,2.923z M14.053,4.271c-0.399,0.009-0.799,0.06-1.198,0.153
				C12.285,4.56,12,4.855,12,5.311c0,0.526,0.279,0.79,0.836,0.79c0.508,0,0.914-0.286,1.217-0.859V4.271z"/>
			<path d="M19.842,1.492l-0.078,1.125c-0.666,0-1.16,0.441-1.482,1.324v2.89h-1.181V1.608h1.124v1.282
				C18.563,1.958,19.102,1.492,19.842,1.492z"/>
			<path d="M22.637-0.097v1.705h1.172v0.874h-1.172v2.866c0,0.502,0.217,0.752,0.646,0.752c0.232,0,0.436-0.02,0.609-0.06
				l-0.047,0.854c-0.264,0.041-0.574,0.061-0.934,0.061c-0.531,0-0.912-0.127-1.143-0.381c-0.209-0.226-0.313-0.562-0.313-1.008
				V2.482h-0.779V1.608h0.779V0.173L22.637-0.097z"/>
		</g>
	</g>
	<g>
		<path d="M28.338,11.863L28.338,11.863l-5.105-0.001l-1.064,4.048H4.466l2.523,9.606h0.017h12.63l-0.49,1.858H7.495l0.631,2.402
			h12.876l4.082-15.513h3.23c0.006,0,0.012,0.001,0.018,0.001c0.664,0,1.201-0.538,1.201-1.202
			C29.533,12.402,29,11.867,28.338,11.863z M8.842,23.114l-1.264-4.804h13.957l-1.264,4.804H8.842z"/>
		<path d="M9.723,31.061c-1.388,0-2.518,1.129-2.518,2.518c0,1.39,1.13,2.519,2.518,2.519s2.516-1.129,2.516-2.519
			C12.239,32.189,11.111,31.061,9.723,31.061z"/>
		<path d="M18.934,31.061c-1.388,0-2.517,1.129-2.517,2.518c0,1.39,1.129,2.519,2.517,2.519c1.387,0,2.516-1.129,2.516-2.519
			C21.449,32.189,20.32,31.061,18.934,31.061z"/>
	</g>
</g>
</svg>
