<?xml version="1.0" encoding="utf-8"?>
<!-- Generator: Adobe Illustrator 16.0.0, SVG Export Plug-In . SVG Version: 6.00 Build 0)  -->
<!DOCTYPE svg PUBLIC "-//W3C//DTD SVG 1.1//EN" "http://www.w3.org/Graphics/SVG/1.1/DTD/svg11.dtd">
<svg version="1.1" id="レイヤー_1" xmlns="http://www.w3.org/2000/svg" xmlns:xlink="http://www.w3.org/1999/xlink" x="0px"
	 y="0px" width="20px" height="20px" viewBox="0 0 20 20" enable-background="new 0 0 20 20" xml:space="preserve">
<g>
	<path fill="#FFFFFF" d="M19.047,0.333L19.047,0.333l-4.074-0.001l-0.85,3.229H0l2.013,7.665h0.014h10.078l-0.392,1.482H2.417
		l0.502,1.916h10.274l3.258-12.376h2.576c0.004,0,0.01,0,0.015,0C19.57,2.249,20,1.82,20,1.291C20,0.763,19.574,0.336,19.047,0.333z
		 M3.491,9.31L2.483,5.478h11.135L12.609,9.31H3.491z"/>
	<path fill="#FFFFFF" d="M4.194,15.65c-1.107,0-2.01,0.9-2.01,2.01c0,1.106,0.903,2.008,2.01,2.008s2.007-0.901,2.007-2.008
		C6.201,16.551,5.301,15.65,4.194,15.65z"/>
	<path fill="#FFFFFF" d="M11.543,15.65c-1.107,0-2.008,0.9-2.008,2.01c0,1.106,0.901,2.008,2.008,2.008
		c1.106,0,2.008-0.901,2.008-2.008C13.551,16.551,12.649,15.65,11.543,15.65z"/>
</g>
</svg>
